<svg width="40" height="40" viewBox="0 0 40 40" fill="none" xmlns="http://www.w3.org/2000/svg">
  <rect width="40" height="40" rx="8" fill="#FFEBEE" />
  <path d="M20 8C14.5 8 10 12.5 10 18C10 23.5 15.2 30 20 32C24.8 30 30 23.5 30 18C30 12.5 25.5 8 20 8ZM20 22C18.9 22 18 21.1 18 20C18 18.9 18.9 18 20 18C21.1 18 22 18.9 22 20C22 21.1 21.1 22 20 22Z" fill="#E53935"/>
  <path d="M23 14C21.9 13.4 20.5 13 19 13C17.5 13 16.1 13.4 15 14L18 20H22L23 14Z" fill="#E53935"/>
  <path d="M24 14C25.5 15.5 26 17.5 26 20C26 22.5 25 25 23 27L21 20L24 14Z" fill="#B71C1C"/>
  <path d="M16 14C14.5 15.5 14 17.5 14 20C14 22.5 15 25 17 27L19 20L16 14Z" fill="#B71C1C"/>
</svg> 